<svg width="39" height="32" viewBox="0 0 39 32" fill="none" xmlns="http://www.w3.org/2000/svg">
<path d="M21.8649 11.525H19.5701L15.7863 17.9894L15.1443 11.3124H12.5488L13.9148 20.6876H16.3463L20.0754 14.4819L21.0043 20.6876H23.4495L28.886 11.3124H26.2905L22.7253 18.0168L21.8649 11.525Z" fill="#917AFF"/>
<path d="M10.4497 17.9214L10.5316 17.5534C10.5862 17.2944 10.6137 17.0491 10.6137 16.8312C10.6137 15.6866 9.83511 15.128 7.85448 15.128H4.07054C3.59239 15.128 3.38765 14.9645 3.38765 14.5965C3.38765 14.0786 3.79755 13.6018 4.39837 13.6018H11.1598L11.9248 11.3124H4.87652C2.55445 11.3124 1.59815 12.0892 1.18846 14.0106L1.12022 14.324C1.05197 14.6509 1.01094 14.9509 1.01094 15.2098C1.01094 16.368 1.72125 16.8995 3.56539 16.8995H7.472C8.00479 16.8995 8.20953 17.0357 8.20953 17.4173C8.20953 17.9896 7.78602 18.412 7.13035 18.412H0.628248L0 20.6876H6.82994C9.04273 20.6876 9.99903 19.9382 10.4497 17.9214Z" fill="#917AFF"/>
<path d="M31.9781 11.3124C31.865 11.3124 31.7557 11.3141 31.6497 11.3175C29.6035 11.3849 28.839 12.1228 28.3583 14.3512L27.648 17.6488C27.5387 18.1667 27.4841 18.6027 27.4841 18.9705C27.4841 20.2651 28.2082 20.6876 29.9839 20.6876H31.0571L31.055 20.6978H36.3282C36.3425 20.6461 36.3569 20.5944 36.3712 20.5428C36.5683 19.8319 36.7654 19.1208 36.9624 18.4099C36.5889 18.4099 36.2156 18.4097 35.842 18.4097C34.4057 18.4093 32.9691 18.4088 31.5329 18.4084L31.5323 18.4118H30.4757C30.0249 18.4118 29.8746 18.2755 29.8746 17.9758C29.8746 17.8942 29.8882 17.7851 29.9157 17.6624L30.626 14.3512C30.7489 13.7925 30.9946 13.6018 31.5138 13.6018H38.2744C38.4883 12.8386 38.7024 12.0756 38.9163 11.3124H31.9781Z" fill="#917AFF"/>
<path d="M10.4746 6.39996C11.722 5.1527 13.1741 4.17374 14.7907 3.48984C16.4639 2.78235 18.2419 2.4235 20.0754 2.4235C21.9089 2.4235 23.687 2.78235 25.3602 3.48984C26.9768 4.17374 28.4289 5.1527 29.6763 6.39996C30.5509 7.27454 31.2938 8.25011 31.8954 9.3122H34.6157C33.8238 7.59066 32.7401 6.03622 31.3901 4.68629C29.921 3.2173 28.2097 2.0638 26.3043 1.25788C24.3307 0.423262 22.2351 0 20.0754 0C17.9158 0 15.8201 0.423262 13.8467 1.25788C11.9412 2.0638 10.2299 3.2173 8.76081 4.68629C7.41077 6.03622 6.32733 7.59045 5.53517 9.3122H8.25545C8.85712 8.25011 9.59996 7.27454 10.4746 6.39996ZM29.6763 25.6C28.4289 26.8473 26.9768 27.8263 25.3602 28.5102C23.687 29.2177 21.9089 29.5765 20.0754 29.5765C18.2419 29.5765 16.4639 29.2177 14.7907 28.5102C13.1741 27.8263 11.722 26.8473 10.4746 25.6C9.59996 24.7255 8.85712 23.7499 8.25545 22.6878H5.53517C6.32733 24.4095 7.41077 25.9638 8.76081 27.3137C10.2299 28.7827 11.9412 29.9362 13.8467 30.7421C15.8201 31.5767 17.9158 32 20.0754 32C22.2351 32 24.3307 31.5767 26.3043 30.7421C28.2097 29.9362 29.921 28.7827 31.3901 27.3137C32.7401 25.9638 33.8238 24.4093 34.6157 22.6878H31.8954C31.2938 23.7499 30.5509 24.7255 29.6763 25.6Z" fill="#917AFF"/>
</svg>
